<svg xmlns="http://www.w3.org/2000/svg" xmlns:xlink="http://www.w3.org/1999/xlink" width="1080" zoomAndPan="magnify" viewBox="0 0 810 809.999993" height="1080" preserveAspectRatio="xMidYMid meet" version="1.0"><defs><clipPath id="e46afd3c52"><path d="M 406 185.613281 L 565 185.613281 L 565 229 L 406 229 Z M 406 185.613281 " clip-rule="nonzero"/></clipPath><clipPath id="9a4666bbeb"><path d="M 251 185.613281 L 565 185.613281 L 565 623 L 251 623 Z M 251 185.613281 " clip-rule="nonzero"/></clipPath><clipPath id="34ae3be1d8"><path d="M 407 185.613281 L 564 185.613281 L 564 228 L 407 228 Z M 407 185.613281 " clip-rule="nonzero"/></clipPath></defs><rect x="-81" width="972" fill="#ffffff" y="-80.999999" height="971.999992" fill-opacity="1"/><rect x="-81" width="972" fill="#3758f9" y="-80.999999" height="971.999992" fill-opacity="1"/><g clip-path="url(#e46afd3c52)"><path stroke-linecap="butt" transform="matrix(0.438773, 0, 0, 0.438773, 185.6125, 185.612516)" fill="none" stroke-linejoin="miter" d="M 506.002158 44.995777 C 522.810377 24.537469 538.89748 12.999624 565.071295 6.073356 C 591.254012 -0.852912 631.111212 2.583514 660.000338 1.995939 C 688.889463 1.417266 729.352044 1.880204 757.012603 2.993037 C 784.673162 4.105869 808.550091 13.373536 827.753124 31.250073 C 846.947255 49.126611 858.520711 71.623628 862.00165 95.999106 C 860.906623 41.577157 802.674336 0.39346 752.000407 0.00174347 L 593.996031 0.00174347 C 563.148321 3.010842 519.560907 15.16297 506.002158 44.995777 Z M 506.002158 44.995777 " stroke="#ffffff" stroke-width="0.3" stroke-opacity="0.21" stroke-miterlimit="4"/></g><g clip-path="url(#9a4666bbeb)"><path stroke-linecap="butt" transform="matrix(0.438773, 0, 0, 0.438773, 185.6125, 185.612516)" fill="none" stroke-linejoin="miter" d="M 506.002158 44.995777 C 480.691902 78.202692 482.59707 115.558245 482.99769 157.997216 C 483.39831 200.436188 482.703902 249.917161 482.99769 292.997124 C 471.237279 287.148077 458.675628 280.488889 445.998243 276.999047 C 418.141826 269.342761 383.207796 274.978144 353.998174 273.998851 C 324.788553 273.019559 286.017477 273.286639 258.000812 273.998851 C 229.984147 274.711064 209.792919 284.584112 188.996309 301.000613 C 186.726132 303.101641 184.162166 305.843659 181.99882 307.998102 C 168.90301 323.32848 158.869715 339.629247 153.999961 359.001431 C 147.082595 386.519547 153.723978 415.746973 151.996863 445.001108 C 150.278649 474.246339 152.762491 505.432351 151.996863 534.998078 C 151.240137 564.572708 152.299553 595.402613 151.996863 625.003951 C 151.703075 654.596387 152.041376 685.631053 151.996863 715.000922 C 151.961252 744.370791 151.809907 776.277918 151.996863 804.997893 C 152.192721 833.717868 151.85442 867.067225 150.999765 893.997765 C 150.154012 920.928306 156.750882 942.232367 173.746056 961.248445 C 190.759036 980.25562 205.492935 990.938809 231.782484 993.21789 C 258.072034 995.49697 292.587639 993.493872 320.996021 994.001324 C 349.413305 994.508775 381.818981 993.78766 411.001894 994.001324 C 440.175905 994.206085 471.593385 993.947908 500.998865 994.001324 C 530.413247 994.045837 561.759506 994.081448 590.995835 994.001324 C 620.241067 993.9212 652.441981 994.268403 681.001708 994.001324 C 709.561435 993.734244 744.068138 994.642315 770.998679 994.001324 C 797.92922 993.360332 816.339917 985.78417 834.252065 967.248836 C 852.164213 948.713502 860.924428 931.923089 862.00165 905.001451 C 863.078871 878.079813 861.520906 843.608721 862.00165 814.995578 C 862.482393 786.391337 861.779083 754.368476 862.00165 724.998607 C 862.224216 695.628738 861.912623 664.709806 862.00165 635.001636 C 862.090676 605.293466 861.966039 574.873084 862.00165 544.995763 C 862.028358 515.127345 862.00165 484.929529 862.00165 454.998793 C 862.00165 425.068056 862.046163 394.950364 862.00165 365.001822 C 861.948234 335.05328 862.117384 304.926685 862.00165 274.995949 C 861.877013 245.074115 862.26873 214.858494 862.00165 184.998978 C 861.743473 155.139463 862.598128 125.796302 862.00165 95.999106 C 858.520711 71.623628 846.947255 49.126611 827.753124 31.250073 C 808.550091 13.373536 784.673162 4.105869 757.012603 2.993037 C 729.352044 1.880204 688.889463 1.417266 660.000338 1.995939 C 631.111212 2.583514 591.254012 -0.852912 565.071295 6.073356 C 538.89748 12.999624 522.810377 24.537469 506.002158 44.995777 M 678.001513 693.002454 C 659.795577 683.289654 647.27844 663.91747 630.746204 651.248987 C 614.231773 638.571602 600.245697 622.68926 584.24762 608.747698 C 568.240641 594.806135 550.98729 579.003917 530.003725 574.000623 C 529.968114 543.001568 530.039335 512.002512 530.003725 481.003457 C 529.959211 450.004402 530.066043 417.883611 530.003725 387.00029 C 529.932503 356.116969 530.163972 324.565949 530.003725 294.003124 C 529.843477 263.431396 530.350928 229.868375 530.003725 199.999957 C 529.647618 170.131539 530.342026 135.97204 531.000822 107.999889 C 531.650716 80.018834 546.616085 63.958439 570.003367 52.999267 C 594.040544 43.562449 623.837741 50.702381 650.002653 49.001974 C 676.158662 47.301566 709.267648 49.910045 734.99633 49.001974 C 760.733914 48.093902 780.399886 50.916045 798.080565 68.91722 C 815.770146 86.909492 814.853173 109.166137 814.995615 135.001651 C 815.14696 160.828262 814.933297 192.833318 814.995615 220.00423 C 815.066836 247.16624 814.968907 277.266127 814.995615 304.997907 C 815.031226 332.729687 814.995615 360.986723 814.995615 389.003388 C 814.995615 417.011151 815.022323 445.820152 814.995615 473.997065 C 814.97781 502.182881 815.049031 530.760413 814.995615 558.999644 C 814.951102 587.238876 815.11135 615.771895 814.995615 644.002224 C 814.888783 672.232553 815.253792 700.836793 814.995615 728.9959 C 814.746341 757.163911 816.001616 785.323018 813.998517 813.001382 C 767.909457 774.337138 724.081671 730.740821 678.001513 693.002454 M 482.000592 574.000623 C 441.262029 587.416929 413.806231 623.463792 382.103866 650.100545 C 350.392598 676.737298 320.862481 705.893503 289.249142 733.251371 C 257.653609 760.618142 229.645846 790.424241 197.996897 816.998676 C 198.068118 785.785956 197.90787 754.172618 197.996897 723.004412 C 198.085923 691.827303 197.827746 660.027008 197.996897 629.001245 C 198.166047 597.966579 197.631888 565.676638 197.996897 534.998078 C 198.370808 504.319518 197.213463 469.803913 197.996897 439.997814 C 198.789233 410.200617 193.153851 379.246075 206.303077 354.300827 C 219.461205 329.346677 241.290523 322.918957 268.666197 322.669683 C 296.050773 322.420409 333.92268 320.613169 362.001664 322.001984 C 390.080648 323.390798 423.857332 316.847345 448.081465 328.919349 C 472.296695 341.000256 481.688999 359.615714 482.000592 387.00029 C 482.312185 414.375964 481.831442 451.856154 482.000592 481.003457 C 482.169743 510.141857 481.849247 545.1204 482.000592 574.000623 Z M 482.000592 574.000623 " stroke="#ffffff" stroke-width="0.3" stroke-opacity="0.99" stroke-miterlimit="4"/></g><path stroke-linecap="butt" transform="matrix(0.438773, 0, 0, 0.438773, 185.6125, 185.612516)" fill="none" stroke-linejoin="miter" d="M 678.001513 693.002454 C 670.202784 686.067283 663.35664 677.18243 654.74777 670.24726 C 646.138899 663.320992 638.553835 656.216671 630.247655 648.747341 C 621.941475 641.27801 614.009206 634.2093 606.103646 626.900218 C 598.18028 619.600038 589.696047 612.834018 581.745973 605.248953 C 573.813705 597.663888 566.023879 590.977992 556.74731 584.247583 C 547.47074 577.526076 530.359831 578.354023 531.000822 564.002938 C 531.641814 549.651853 530.769353 532.888148 531.000822 518.002904 C 531.232291 503.108757 531.009725 487.137388 531.000822 472.00287 C 530.99192 456.859448 531.56169 443.692417 531.99792 429.003031 C 532.443053 414.313645 531.802062 398.030684 531.99792 383.002997 C 532.202681 367.966407 531.908893 352.181995 531.99792 337.002962 C 532.086947 321.82393 531.962309 306.217571 531.99792 291.002928 C 532.042433 275.779383 531.980115 260.181926 531.99792 245.002894 C 532.015725 229.823862 531.980115 214.030546 531.99792 199.00286 C 532.015725 183.96627 531.971212 167.683308 531.99792 153.002825 C 532.033531 138.322342 531.953407 120.908743 531.99792 107.002791 C 532.060239 93.096839 537.250488 83.802464 544.702013 73.697947 C 552.135733 63.59343 560.308373 59.50711 570.003367 52.999267 C 546.616085 63.958439 531.650716 80.018834 531.000822 107.999889 C 530.342026 135.97204 529.647618 170.131539 530.003725 199.999957 C 530.350928 229.868375 529.843477 263.431396 530.003725 294.003124 C 530.163972 324.565949 529.932503 356.116969 530.003725 387.00029 C 530.066043 417.883611 529.959211 450.004402 530.003725 481.003457 C 530.039335 512.002512 529.968114 543.001568 530.003725 574.000623 C 550.98729 579.003917 568.240641 594.806135 584.24762 608.747698 C 600.245697 622.68926 614.231773 638.571602 630.746204 651.248987 C 647.27844 663.91747 659.795577 683.289654 678.001513 693.002454 Z M 678.001513 693.002454 " stroke="#ffffff" stroke-width="0.3" stroke-opacity="0.16" stroke-miterlimit="4"/><path stroke-linecap="butt" transform="matrix(0.438773, 0, 0, 0.438773, 185.6125, 185.612516)" fill="none" stroke-linejoin="miter" d="M 153.999961 359.001431 C 158.869715 339.629247 168.90301 323.32848 181.99882 307.998102 C 184.188874 305.44304 186.387831 303.057127 188.996309 301.000613 C 209.792919 284.584112 229.984147 274.711064 258.000812 273.998851 C 286.017477 273.286639 324.788553 273.019559 353.998174 273.998851 C 383.207796 274.978144 418.141826 269.342761 445.998243 276.999047 C 433.792699 270.393275 413.788426 272.95724 396.998013 271.995753 C 380.2076 271.043169 359.304159 272.431983 341.997391 271.995753 C 324.699527 271.568426 303.003749 272.209417 285.999672 271.995753 C 268.995595 271.790992 250.228792 272.770284 235.067565 276.073171 C 219.924144 279.367154 208.181538 285.474378 196.251976 293.246398 C 184.322414 301.027321 177.022234 310.339502 169.250214 321.25416 C 161.487096 332.159916 154.614244 346.70686 153.999961 359.001431 Z M 153.999961 359.001431 " stroke="#ffffff" stroke-width="0.3" stroke-opacity="0.16" stroke-miterlimit="4"/><path stroke-linecap="butt" transform="matrix(0.438773, 0, 0, 0.438773, 185.6125, 185.612516)" fill="none" stroke-linejoin="miter" d="M 181.99882 307.998102 C 184.162166 305.843659 186.726132 303.101641 188.996309 301.000613 C 186.387831 303.057127 184.188874 305.44304 181.99882 307.998102 Z M 181.99882 307.998102 " stroke="#ffffff" stroke-width="0.3" stroke-opacity="0.63" stroke-miterlimit="4"/><g clip-path="url(#34ae3be1d8)"><path fill="#f5f5f5" d="M 407.632812 205.355469 C 415.007812 196.378906 422.066406 191.316406 433.550781 188.277344 C 445.039062 185.238281 462.527344 186.746094 475.203125 186.488281 C 487.878906 186.234375 505.632812 186.4375 517.769531 186.925781 C 529.90625 187.414062 540.382812 191.480469 548.808594 199.324219 C 557.230469 207.167969 562.308594 217.039062 563.835938 227.734375 C 563.355469 203.855469 537.804688 185.785156 515.570312 185.613281 L 446.242188 185.613281 C 432.707031 186.933594 413.582031 192.265625 407.632812 205.355469 Z M 407.632812 205.355469 " fill-opacity="0.21" fill-rule="nonzero"/></g><path fill="#f5f5f5" d="M 407.632812 205.355469 C 396.527344 219.925781 397.363281 236.316406 397.539062 254.9375 C 397.714844 273.558594 397.410156 295.269531 397.539062 314.171875 C 392.378906 311.605469 386.867188 308.683594 381.304688 307.152344 C 369.082031 303.792969 353.753906 306.265625 340.9375 305.835938 C 328.121094 305.40625 311.109375 305.523438 298.816406 305.835938 C 286.523438 306.148438 277.664062 310.480469 268.539062 317.683594 C 267.542969 318.605469 266.417969 319.808594 265.46875 320.753906 C 259.722656 327.480469 255.320312 334.632812 253.183594 343.132812 C 250.148438 355.207031 253.0625 368.03125 252.304688 380.867188 C 251.550781 393.699219 252.640625 407.382812 252.304688 420.355469 C 251.972656 433.332031 252.4375 446.859375 252.304688 459.847656 C 252.175781 472.832031 252.324219 486.449219 252.304688 499.335938 C 252.289062 512.222656 252.222656 526.222656 252.304688 538.824219 C 252.390625 551.425781 252.242188 566.058594 251.867188 577.875 C 251.496094 589.691406 254.390625 599.039062 261.847656 607.382812 C 269.3125 615.722656 275.777344 620.410156 287.3125 621.410156 C 298.847656 622.410156 313.992188 621.53125 326.457031 621.753906 C 338.925781 621.976562 353.144531 621.660156 365.949219 621.753906 C 378.75 621.84375 392.535156 621.730469 405.4375 621.753906 C 418.34375 621.773438 432.097656 621.789062 444.925781 621.753906 C 457.757812 621.71875 471.886719 621.871094 484.417969 621.753906 C 496.949219 621.636719 512.089844 622.035156 523.90625 621.753906 C 535.722656 621.472656 543.800781 618.148438 551.660156 610.015625 C 559.519531 601.882812 563.363281 594.515625 563.835938 582.703125 C 564.308594 570.890625 563.625 555.765625 563.835938 543.210938 C 564.046875 530.660156 563.738281 516.609375 563.835938 503.722656 C 563.933594 490.835938 563.796875 477.269531 563.835938 464.234375 C 563.875 451.199219 563.820312 437.851562 563.835938 424.742188 C 563.847656 411.636719 563.835938 398.386719 563.835938 385.253906 C 563.835938 372.121094 563.855469 358.90625 563.835938 345.765625 C 563.8125 332.625 563.886719 319.40625 563.835938 306.273438 C 563.78125 293.144531 563.953125 279.886719 563.835938 266.785156 C 563.722656 253.683594 564.097656 240.808594 563.835938 227.734375 C 562.308594 217.039062 557.230469 207.167969 548.808594 199.324219 C 540.382812 191.480469 529.90625 187.414062 517.769531 186.925781 C 505.632812 186.4375 487.878906 186.234375 475.203125 186.488281 C 462.527344 186.746094 445.039062 185.238281 433.550781 188.277344 C 422.066406 191.316406 415.007812 196.378906 407.632812 205.355469 M 483.101562 489.683594 C 475.113281 485.421875 469.621094 476.921875 462.367188 471.363281 C 455.121094 465.800781 448.984375 458.832031 441.964844 452.714844 C 434.941406 446.597656 427.371094 439.664062 418.164062 437.46875 C 418.148438 423.867188 418.179688 410.265625 418.164062 396.664062 C 418.144531 383.0625 418.191406 368.96875 418.164062 355.417969 C 418.132812 341.867188 418.234375 328.023438 418.164062 314.613281 C 418.09375 301.199219 418.316406 286.472656 418.164062 273.367188 C 418.007812 260.261719 418.3125 245.273438 418.601562 233 C 418.886719 220.722656 425.453125 213.675781 435.714844 208.867188 C 446.261719 204.726562 459.335938 207.859375 470.816406 207.113281 C 482.292969 206.367188 496.820312 207.511719 508.109375 207.113281 C 519.402344 206.714844 528.03125 207.953125 535.789062 215.851562 C 543.550781 223.746094 543.148438 233.511719 543.210938 244.847656 C 543.277344 256.179688 543.183594 270.222656 543.210938 282.144531 C 543.242188 294.0625 543.199219 307.269531 543.210938 319.4375 C 543.226562 331.605469 543.210938 344.003906 543.210938 356.296875 C 543.210938 368.585938 543.222656 381.226562 543.210938 393.589844 C 543.203125 405.957031 543.234375 418.496094 543.210938 430.886719 C 543.191406 443.277344 543.261719 455.796875 543.210938 468.183594 C 543.164062 480.570312 543.324219 493.121094 543.210938 505.476562 C 543.101562 517.835938 543.652344 530.191406 542.773438 542.335938 C 522.550781 525.371094 503.320312 506.242188 483.101562 489.683594 M 397.101562 437.46875 C 379.226562 443.355469 367.179688 459.171875 353.269531 470.859375 C 339.355469 482.546875 326.398438 495.339844 312.527344 507.34375 C 298.664062 519.351562 286.375 532.429688 272.488281 544.089844 C 272.519531 530.394531 272.449219 516.523438 272.488281 502.847656 C 272.527344 489.167969 272.414062 475.214844 272.488281 461.601562 C 272.5625 447.984375 272.328125 433.816406 272.488281 420.355469 C 272.652344 406.894531 272.144531 391.75 272.488281 378.671875 C 272.835938 365.597656 270.363281 352.015625 276.132812 341.070312 C 281.90625 330.121094 291.484375 327.300781 303.496094 327.191406 C 315.511719 327.082031 332.128906 326.289062 344.449219 326.898438 C 356.769531 327.507812 371.589844 324.636719 382.21875 329.933594 C 392.84375 335.234375 396.964844 343.402344 397.101562 355.417969 C 397.238281 367.429688 397.027344 383.875 397.101562 396.664062 C 397.175781 409.449219 397.035156 424.796875 397.101562 437.46875 Z M 397.101562 437.46875 " fill-opacity="0.99" fill-rule="nonzero"/><path fill="#f5f5f5" d="M 483.101562 489.683594 C 479.679688 486.640625 476.675781 482.742188 472.898438 479.699219 C 469.121094 476.660156 465.792969 473.542969 462.148438 470.265625 C 458.503906 466.988281 455.023438 463.886719 451.554688 460.679688 C 448.078125 457.476562 444.355469 454.507812 440.867188 451.179688 C 437.386719 447.851562 433.96875 444.917969 429.898438 441.964844 C 425.828125 439.015625 418.320312 439.378906 418.601562 433.082031 C 418.882812 426.785156 418.5 419.429688 418.601562 412.898438 C 418.703125 406.363281 418.605469 399.355469 418.601562 392.714844 C 418.597656 386.070312 418.847656 380.292969 419.039062 373.847656 C 419.234375 367.402344 418.953125 360.257812 419.039062 353.664062 C 419.128906 347.066406 419 340.140625 419.039062 333.480469 C 419.078125 326.820312 419.023438 319.972656 419.039062 313.296875 C 419.058594 306.617188 419.03125 299.773438 419.039062 293.113281 C 419.046875 286.453125 419.03125 279.523438 419.039062 272.929688 C 419.046875 266.332031 419.027344 259.1875 419.039062 252.746094 C 419.054688 246.304688 419.019531 238.664062 419.039062 232.5625 C 419.066406 226.460938 421.34375 222.382812 424.613281 217.949219 C 427.875 213.515625 431.460938 211.722656 435.714844 208.867188 C 425.453125 213.675781 418.886719 220.722656 418.601562 233 C 418.3125 245.273438 418.007812 260.261719 418.164062 273.367188 C 418.316406 286.472656 418.09375 301.199219 418.164062 314.613281 C 418.234375 328.023438 418.132812 341.867188 418.164062 355.417969 C 418.191406 368.96875 418.144531 383.0625 418.164062 396.664062 C 418.179688 410.265625 418.148438 423.867188 418.164062 437.46875 C 427.371094 439.664062 434.941406 446.597656 441.964844 452.714844 C 448.984375 458.832031 455.121094 465.800781 462.367188 471.363281 C 469.621094 476.921875 475.113281 485.421875 483.101562 489.683594 Z M 483.101562 489.683594 " fill-opacity="0.16" fill-rule="nonzero"/><path fill="#f5f5f5" d="M 253.183594 343.132812 C 255.320312 334.632812 259.722656 327.480469 265.46875 320.753906 C 266.429688 319.632812 267.394531 318.585938 268.539062 317.683594 C 277.664062 310.480469 286.523438 306.148438 298.816406 305.835938 C 311.109375 305.523438 328.121094 305.40625 340.9375 305.835938 C 353.753906 306.265625 369.082031 303.792969 381.304688 307.152344 C 375.949219 304.253906 367.171875 305.378906 359.804688 304.957031 C 352.4375 304.539062 343.265625 305.148438 335.671875 304.957031 C 328.082031 304.769531 318.5625 305.050781 311.101562 304.957031 C 303.640625 304.867188 295.40625 305.296875 288.753906 306.746094 C 282.109375 308.191406 276.957031 310.871094 271.722656 314.28125 C 266.488281 317.695312 263.285156 321.78125 259.875 326.570312 C 256.46875 331.355469 253.453125 337.738281 253.183594 343.132812 Z M 253.183594 343.132812 " fill-opacity="0.16" fill-rule="nonzero"/><path fill="#f5f5f5" d="M 265.46875 320.753906 C 266.417969 319.808594 267.542969 318.605469 268.539062 317.683594 C 267.394531 318.585938 266.429688 319.632812 265.46875 320.753906 Z M 265.46875 320.753906 " fill-opacity="0.63" fill-rule="nonzero"/></svg>