<svg xmlns="http://www.w3.org/2000/svg" xmlns:xlink="http://www.w3.org/1999/xlink" width="736" zoomAndPan="magnify" viewBox="0 0 552 190.499994" height="254" preserveAspectRatio="xMidYMid meet" version="1.0"><defs><g/><clipPath id="1e26f4db8e"><path d="M 51 44.632812 L 88 44.632812 L 88 55 L 51 55 Z M 51 44.632812 " clip-rule="nonzero"/></clipPath><clipPath id="f0aecce8c2"><path d="M 15 44.632812 L 88 44.632812 L 88 145 L 15 145 Z M 15 44.632812 " clip-rule="nonzero"/></clipPath><clipPath id="516b527740"><path d="M 51 44.632812 L 88 44.632812 L 88 55 L 51 55 Z M 51 44.632812 " clip-rule="nonzero"/></clipPath><clipPath id="d273cd15bd"><path d="M 15 44.632812 L 88 44.632812 L 88 145 L 15 145 Z M 15 44.632812 " clip-rule="nonzero"/></clipPath></defs><g clip-path="url(#1e26f4db8e)"><path stroke-linecap="butt" transform="matrix(0.100472, 0, 0, 0.100472, 0.722521, 44.632217)" fill="none" stroke-linejoin="miter" d="M 506.013653 44.989114 C 522.809452 24.538674 538.905426 12.991563 565.071103 6.071072 C 591.236779 -0.849419 631.126801 2.571947 660.014019 1.98876 C 688.901238 1.405572 729.335568 1.872122 757.017532 2.999618 C 784.660617 4.127114 808.532423 13.380355 827.73873 31.26477 C 846.945037 49.149185 858.531027 71.621341 861.991273 95.998577 C 860.902656 41.567748 802.66167 0.394714 752.00212 0.00592239 L 593.9972 0.00592239 C 563.166024 2.999618 519.543602 15.168796 506.013653 44.989114 Z M 506.013653 44.989114 " stroke="#ffffff" stroke-width="0.3" stroke-opacity="0.21" stroke-miterlimit="4"/></g><g clip-path="url(#f0aecce8c2)"><path stroke-linecap="butt" transform="matrix(0.100472, 0, 0, 0.100472, 0.722521, 44.632217)" fill="none" stroke-linejoin="miter" d="M 506.013653 44.989114 C 480.703318 78.19192 482.608397 115.554796 482.997189 158.010842 C 483.38598 200.428009 482.686155 249.921184 482.997189 292.999297 C 471.255681 287.167423 458.697712 280.480207 445.984225 276.981082 C 418.146744 269.321887 383.194377 274.998245 353.996125 273.987386 C 324.797873 273.015407 286.035347 273.287561 258.003471 273.987386 C 229.971594 274.72609 209.793308 284.562519 188.992956 301.008405 C 186.737964 303.10788 184.17194 305.829421 181.994706 308.006654 C 168.892428 323.325045 158.861604 339.615414 154.001709 359.016116 C 147.081218 386.503685 153.729555 415.740816 152.018871 445.016826 C 150.269309 474.253957 152.757576 505.435045 152.018871 534.98321 C 151.241288 564.570253 152.291026 595.401429 152.018871 624.988473 C 151.707838 654.614395 152.057751 685.639967 152.018871 714.993736 C 151.941113 744.386383 151.824476 776.267297 152.018871 804.998999 C 152.174388 833.730701 151.863355 867.089023 151.008013 893.993404 C 150.152672 920.936664 156.762129 942.242445 173.752324 961.254356 C 190.742518 980.266267 205.477721 990.958037 231.798915 993.213028 C 258.081229 995.506899 292.605926 993.485183 320.987715 993.990612 C 349.408384 994.496041 381.833606 993.796216 410.992978 993.990612 C 440.19123 994.223887 471.605594 993.951733 500.998241 993.990612 C 530.390889 994.06837 561.766374 994.06837 591.003504 993.990612 C 620.240635 993.912853 652.432582 994.262766 681.008768 993.990612 C 709.546073 993.718458 744.07077 994.651557 771.014031 993.990612 C 797.918412 993.368545 816.347135 985.787108 834.23155 967.241747 C 852.154844 948.696386 860.902656 931.900588 861.991273 904.996207 C 863.079889 878.091826 861.524723 843.606008 861.991273 814.990944 C 862.496702 786.37588 861.796877 754.378328 861.991273 724.985681 C 862.224548 695.631912 861.913514 664.722978 861.991273 635.019297 C 862.10791 605.276737 861.952394 574.873231 861.991273 545.014034 C 862.030152 515.115957 861.991273 484.945726 861.991273 455.008771 C 861.991273 425.071815 862.069031 394.940463 861.991273 365.003508 C 861.952394 335.066552 862.10791 304.9352 861.991273 274.998245 C 861.874635 245.061289 862.263427 214.852179 861.991273 184.992981 C 861.757998 155.133784 862.613339 125.818895 861.991273 95.998577 C 858.531027 71.621341 846.945037 49.149185 827.73873 31.26477 C 808.532423 13.380355 784.660617 4.127114 757.017532 2.999618 C 729.335568 1.872122 688.901238 1.405572 660.014019 1.98876 C 631.126801 2.571947 591.236779 -0.849419 565.071103 6.071072 C 538.905426 12.991563 522.809452 24.538674 506.013653 44.989114 M 678.015072 692.988129 C 659.780744 683.307218 647.261654 663.906515 630.738009 651.231908 C 614.214365 638.557301 600.256745 622.694602 584.23853 608.736982 C 568.259194 594.818242 550.996845 578.994422 530.002097 574.01789 C 529.963218 542.992317 530.040976 512.005624 530.002097 481.018931 C 529.963218 449.993359 530.079856 417.87917 530.002097 387.009114 C 529.924339 356.139058 530.157614 324.569178 530.002097 294.010155 C 529.846581 263.412254 530.35201 229.859536 530.002097 200.000338 C 529.652185 170.141141 530.35201 135.966356 531.012955 108.012238 C 531.635022 80.01924 546.6035 63.962146 570.008756 52.998222 C 594.036079 43.550585 623.856397 50.704351 649.983195 48.993668 C 676.148872 47.282985 709.273919 49.926768 735.011925 48.993668 C 760.711052 48.099447 780.383909 50.937626 798.073928 68.938679 C 815.763948 86.900852 814.830848 109.178613 814.986364 134.994377 C 815.141881 160.849021 814.947485 192.846572 814.986364 219.984228 C 815.064123 247.160764 814.986364 277.253236 814.986364 305.012959 C 815.025243 332.733802 814.986364 360.998954 814.986364 388.991951 C 814.986364 417.023828 815.025243 445.833288 814.986364 473.981802 C 814.986364 502.169196 815.064123 530.745381 814.986364 559.010533 C 814.947485 587.236805 815.103002 615.774111 814.986364 644.000384 C 814.908606 672.226656 815.258518 700.84172 814.986364 728.990235 C 814.753089 757.177628 815.997223 785.326142 814.014385 813.008106 C 767.903698 774.323339 724.08688 730.739797 678.015072 692.988129 M 481.986331 574.01789 C 441.240967 587.431201 413.792278 623.472185 382.10576 650.104412 C 350.380363 676.736639 320.871078 705.896012 289.262318 733.266943 C 257.653558 760.637873 229.660561 790.419313 198.012922 817.01266 C 198.051801 785.792692 197.896284 754.183932 198.012922 723.002843 C 198.09068 691.821754 197.818526 660.018599 198.012922 628.993026 C 198.168438 597.967454 197.62413 565.697749 198.012922 534.98321 C 198.362834 504.30755 197.196459 469.782853 198.012922 440.001414 C 198.790505 410.181095 193.153026 379.233281 206.294183 354.311738 C 219.47422 329.351315 241.28543 322.936253 268.656361 322.664099 C 296.066172 322.430824 333.934477 320.603503 362.005233 322.003153 C 390.075988 323.402803 423.861981 316.832224 448.0837 328.923644 C 472.305419 341.015064 481.675297 359.638183 481.986331 387.009114 C 482.297364 414.380045 481.830814 451.859558 481.986331 481.018931 C 482.180726 510.139424 481.830814 545.130671 481.986331 574.01789 Z M 481.986331 574.01789 " stroke="#ffffff" stroke-width="0.3" stroke-opacity="0.99" stroke-miterlimit="4"/></g><path stroke-linecap="butt" transform="matrix(0.100472, 0, 0, 0.100472, 0.722521, 44.632217)" fill="none" stroke-linejoin="miter" d="M 678.015072 692.988129 C 670.20036 686.067638 663.357627 677.16431 654.765332 670.243819 C 646.134158 663.323328 638.552721 656.208441 630.23258 648.743641 C 621.951318 641.278842 614.019969 634.202834 606.08862 626.893552 C 598.19615 619.584269 589.681613 612.819295 581.750264 605.237858 C 573.818914 597.656421 566.004202 590.969205 556.750962 584.24311 C 547.458842 577.517014 530.35201 578.333477 531.012955 563.987065 C 531.635022 549.640654 530.77968 532.883735 531.012955 517.993015 C 531.24623 503.102296 531.012955 487.12296 531.012955 471.998965 C 530.974076 456.87497 531.557264 443.694934 531.984935 428.99861 C 532.451485 414.302287 531.790539 398.011917 531.984935 383.00456 C 532.21821 367.958324 531.907176 352.173384 531.984935 337.01051 C 532.101572 321.808757 531.946055 306.218213 531.984935 291.01646 C 532.023814 275.775828 531.984935 260.185283 531.984935 244.98353 C 532.023814 229.820657 531.984935 214.035716 531.984935 198.98948 C 532.023814 183.982123 531.984935 167.691754 531.984935 152.99543 C 532.023814 138.337985 531.946055 120.92012 531.984935 107.00138 C 532.062693 93.082639 537.233622 83.790519 544.698421 73.681937 C 552.124341 63.573354 560.327845 59.491042 570.008756 52.998222 C 546.6035 63.962146 531.635022 80.01924 531.012955 108.012238 C 530.35201 135.966356 529.652185 170.141141 530.002097 200.000338 C 530.35201 229.859536 529.846581 263.412254 530.002097 294.010155 C 530.157614 324.569178 529.924339 356.139058 530.002097 387.009114 C 530.079856 417.87917 529.963218 449.993359 530.002097 481.018931 C 530.040976 512.005624 529.963218 542.992317 530.002097 574.01789 C 550.996845 578.994422 568.259194 594.818242 584.23853 608.736982 C 600.256745 622.694602 614.214365 638.557301 630.738009 651.231908 C 647.261654 663.906515 659.780744 683.307218 678.015072 692.988129 Z M 678.015072 692.988129 " stroke="#ffffff" stroke-width="0.3" stroke-opacity="0.16" stroke-miterlimit="4"/><path stroke-linecap="butt" transform="matrix(0.100472, 0, 0, 0.100472, 0.722521, 44.632217)" fill="none" stroke-linejoin="miter" d="M 154.001709 359.016116 C 158.861604 339.615414 168.892428 323.325045 181.994706 308.006654 C 184.17194 305.440629 186.388052 303.069 188.992956 301.008405 C 209.793308 284.562519 229.971594 274.72609 258.003471 273.987386 C 286.035347 273.287561 324.797873 273.015407 353.996125 273.987386 C 383.194377 274.998245 418.146744 269.321887 445.984225 276.981082 C 433.776168 270.371624 413.792278 272.976528 396.99648 272.004549 C 380.200681 271.03257 359.283691 272.43222 341.982463 272.004549 C 324.681236 271.576878 302.986663 272.198945 285.996468 272.004549 C 269.006274 271.771274 250.227638 272.782132 235.064764 276.086861 C 219.901891 279.352711 208.199262 285.456739 196.263359 293.232572 C 184.327456 301.047284 177.018173 310.339404 169.242341 321.264449 C 161.505387 332.150615 154.623775 346.691422 154.001709 359.016116 Z M 154.001709 359.016116 " stroke="#ffffff" stroke-width="0.3" stroke-opacity="0.16" stroke-miterlimit="4"/><path stroke-linecap="butt" transform="matrix(0.100472, 0, 0, 0.100472, 0.722521, 44.632217)" fill="none" stroke-linejoin="miter" d="M 181.994706 308.006654 C 184.17194 305.829421 186.737964 303.10788 188.992956 301.008405 C 186.388052 303.069 184.17194 305.440629 181.994706 308.006654 Z M 181.994706 308.006654 " stroke="#ffffff" stroke-width="0.3" stroke-opacity="0.63" stroke-miterlimit="4"/><g clip-path="url(#516b527740)"><path fill="#3758f9" d="M 51.5625 49.152344 C 53.25 47.097656 54.867188 45.9375 57.496094 45.242188 C 60.125 44.546875 64.132812 44.890625 67.035156 44.832031 C 69.9375 44.773438 74 44.820312 76.78125 44.933594 C 79.558594 45.046875 81.957031 45.976562 83.886719 47.773438 C 85.816406 49.570312 86.980469 51.828125 87.328125 54.277344 C 87.21875 48.808594 81.367188 44.671875 76.277344 44.632812 L 60.402344 44.632812 C 57.304688 44.933594 52.921875 46.15625 51.5625 49.152344 Z M 51.5625 49.152344 " fill-opacity="0.21" fill-rule="nonzero"/></g><g clip-path="url(#d273cd15bd)"><path fill="#3758f9" d="M 51.5625 49.152344 C 49.019531 52.488281 49.210938 56.242188 49.25 60.507812 C 49.289062 64.769531 49.21875 69.742188 49.25 74.070312 C 48.070312 73.484375 46.808594 72.8125 45.53125 72.460938 C 42.734375 71.691406 39.222656 72.261719 36.289062 72.160156 C 33.355469 72.0625 29.460938 72.089844 26.644531 72.160156 C 23.828125 72.234375 21.800781 73.222656 19.710938 74.875 C 19.484375 75.085938 19.226562 75.359375 19.007812 75.578125 C 17.691406 77.117188 16.683594 78.753906 16.195312 80.703125 C 15.5 83.464844 16.167969 86.402344 15.996094 89.34375 C 15.820312 92.28125 16.070312 95.414062 15.996094 98.382812 C 15.917969 101.355469 16.023438 104.453125 15.996094 107.425781 C 15.964844 110.402344 16 113.519531 15.996094 116.46875 C 15.988281 119.421875 15.976562 122.625 15.996094 125.511719 C 16.011719 128.398438 15.980469 131.75 15.894531 134.453125 C 15.808594 137.160156 16.472656 139.300781 18.179688 141.210938 C 19.886719 143.121094 21.367188 144.195312 24.011719 144.421875 C 26.652344 144.652344 30.121094 144.449219 32.972656 144.5 C 35.828125 144.550781 39.085938 144.480469 42.015625 144.5 C 44.949219 144.523438 48.105469 144.496094 51.058594 144.5 C 54.011719 144.507812 57.164062 144.507812 60.101562 144.5 C 63.039062 144.492188 66.273438 144.527344 69.144531 144.5 C 72.011719 144.472656 75.480469 144.566406 78.1875 144.5 C 80.890625 144.4375 82.742188 143.675781 84.539062 141.8125 C 86.339844 139.949219 87.21875 138.261719 87.328125 135.558594 C 87.4375 132.855469 87.28125 129.390625 87.328125 126.515625 C 87.378906 123.640625 87.308594 120.425781 87.328125 117.472656 C 87.351562 114.523438 87.320312 111.417969 87.328125 108.433594 C 87.339844 105.445312 87.324219 102.390625 87.328125 99.390625 C 87.332031 96.386719 87.328125 93.355469 87.328125 90.347656 C 87.328125 87.339844 87.335938 84.3125 87.328125 81.304688 C 87.324219 78.296875 87.339844 75.269531 87.328125 72.261719 C 87.316406 69.253906 87.355469 66.21875 87.328125 63.21875 C 87.304688 60.21875 87.390625 57.273438 87.328125 54.277344 C 86.980469 51.828125 85.816406 49.570312 83.886719 47.773438 C 81.957031 45.976562 79.558594 45.046875 76.78125 44.933594 C 74 44.820312 69.9375 44.773438 67.035156 44.832031 C 64.132812 44.890625 60.125 44.546875 57.496094 45.242188 C 54.867188 45.9375 53.25 47.097656 51.5625 49.152344 M 68.84375 114.257812 C 67.011719 113.285156 65.753906 111.335938 64.09375 110.0625 C 62.433594 108.789062 61.03125 107.195312 59.421875 105.792969 C 57.816406 104.394531 56.082031 102.804688 53.972656 102.304688 C 53.96875 99.1875 53.976562 96.074219 53.972656 92.960938 C 53.96875 89.84375 53.980469 86.617188 53.972656 83.515625 C 53.964844 80.414062 53.988281 77.242188 53.972656 74.171875 C 53.957031 71.097656 54.007812 67.726562 53.972656 64.726562 C 53.9375 61.726562 54.007812 58.292969 54.074219 55.484375 C 54.136719 52.671875 55.640625 51.058594 57.992188 49.957031 C 60.40625 49.007812 63.402344 49.726562 66.027344 49.554688 C 68.65625 49.382812 71.984375 49.648438 74.570312 49.554688 C 77.152344 49.464844 79.128906 49.75 80.90625 51.558594 C 82.683594 53.363281 82.589844 55.601562 82.605469 58.195312 C 82.621094 60.792969 82.601562 64.007812 82.605469 66.734375 C 82.613281 69.464844 82.605469 72.488281 82.605469 75.277344 C 82.609375 78.0625 82.605469 80.902344 82.605469 83.714844 C 82.605469 86.53125 82.609375 89.425781 82.605469 92.253906 C 82.605469 95.085938 82.613281 97.957031 82.605469 100.796875 C 82.601562 103.632812 82.617188 106.5 82.605469 109.335938 C 82.597656 112.171875 82.632812 115.046875 82.605469 117.875 C 82.582031 120.707031 82.707031 123.535156 82.507812 126.316406 C 77.875 122.429688 73.472656 118.050781 68.84375 114.257812 M 49.148438 102.304688 C 45.054688 103.652344 42.296875 107.273438 39.113281 109.949219 C 35.925781 112.625 32.960938 115.554688 29.785156 118.304688 C 26.609375 121.054688 23.796875 124.046875 20.617188 126.71875 C 20.621094 123.582031 20.605469 120.40625 20.617188 117.273438 C 20.625 114.140625 20.597656 110.945312 20.617188 107.828125 C 20.632812 104.710938 20.578125 101.46875 20.617188 98.382812 C 20.652344 95.300781 20.535156 91.832031 20.617188 88.839844 C 20.695312 85.84375 20.128906 82.734375 21.449219 80.230469 C 22.773438 77.722656 24.964844 77.078125 27.714844 77.050781 C 30.46875 77.027344 34.273438 76.84375 37.09375 76.984375 C 39.914062 77.125 43.308594 76.464844 45.742188 77.679688 C 48.175781 78.894531 49.117188 80.765625 49.148438 83.515625 C 49.179688 86.265625 49.132812 90.03125 49.148438 92.960938 C 49.167969 95.886719 49.132812 99.402344 49.148438 102.304688 Z M 49.148438 102.304688 " fill-opacity="0.99" fill-rule="nonzero"/></g><path fill="#3758f9" d="M 68.84375 114.257812 C 68.058594 113.5625 67.371094 112.667969 66.507812 111.972656 C 65.640625 111.277344 64.878906 110.5625 64.042969 109.8125 C 63.210938 109.0625 62.414062 108.351562 61.617188 107.617188 C 60.824219 106.882812 59.96875 106.203125 59.171875 105.441406 C 58.375 104.679688 57.589844 104.007812 56.660156 103.332031 C 55.726562 102.65625 54.007812 102.738281 54.074219 101.296875 C 54.136719 99.855469 54.050781 98.171875 54.074219 96.675781 C 54.097656 95.179688 54.074219 93.574219 54.074219 92.054688 C 54.070312 90.535156 54.128906 89.210938 54.171875 87.734375 C 54.21875 86.257812 54.152344 84.621094 54.171875 83.113281 C 54.195312 81.601562 54.164062 80.015625 54.171875 78.492188 C 54.183594 76.964844 54.167969 75.398438 54.171875 73.871094 C 54.175781 72.339844 54.171875 70.773438 54.171875 69.246094 C 54.175781 67.722656 54.171875 66.136719 54.171875 64.625 C 54.175781 63.117188 54.171875 61.480469 54.171875 60.003906 C 54.175781 58.53125 54.167969 56.78125 54.171875 55.382812 C 54.179688 53.984375 54.699219 53.050781 55.449219 52.035156 C 56.195312 51.019531 57.019531 50.609375 57.992188 49.957031 C 55.640625 51.058594 54.136719 52.671875 54.074219 55.484375 C 54.007812 58.292969 53.9375 61.726562 53.972656 64.726562 C 54.007812 67.726562 53.957031 71.097656 53.972656 74.171875 C 53.988281 77.242188 53.964844 80.414062 53.972656 83.515625 C 53.980469 86.617188 53.96875 89.84375 53.972656 92.960938 C 53.976562 96.074219 53.96875 99.1875 53.972656 102.304688 C 56.082031 102.804688 57.816406 104.394531 59.421875 105.792969 C 61.03125 107.195312 62.433594 108.789062 64.09375 110.0625 C 65.753906 111.335938 67.011719 113.285156 68.84375 114.257812 Z M 68.84375 114.257812 " fill-opacity="0.16" fill-rule="nonzero"/><path fill="#3758f9" d="M 16.195312 80.703125 C 16.683594 78.753906 17.691406 77.117188 19.007812 75.578125 C 19.226562 75.320312 19.449219 75.082031 19.710938 74.875 C 21.800781 73.222656 23.828125 72.234375 26.644531 72.160156 C 29.460938 72.089844 33.355469 72.0625 36.289062 72.160156 C 39.222656 72.261719 42.734375 71.691406 45.53125 72.460938 C 44.304688 71.796875 42.296875 72.058594 40.609375 71.960938 C 38.921875 71.863281 36.820312 72.003906 35.082031 71.960938 C 33.34375 71.917969 31.164062 71.980469 29.457031 71.960938 C 27.75 71.9375 25.863281 72.039062 24.339844 72.371094 C 22.816406 72.699219 21.640625 73.3125 20.441406 74.09375 C 19.242188 74.878906 18.507812 75.8125 17.726562 76.910156 C 16.949219 78.003906 16.257812 79.464844 16.195312 80.703125 Z M 16.195312 80.703125 " fill-opacity="0.16" fill-rule="nonzero"/><path fill="#3758f9" d="M 19.007812 75.578125 C 19.226562 75.359375 19.484375 75.085938 19.710938 74.875 C 19.449219 75.082031 19.226562 75.320312 19.007812 75.578125 Z M 19.007812 75.578125 " fill-opacity="0.63" fill-rule="nonzero"/><g fill="#101928" fill-opacity="1"><g transform="translate(114.29141, 123.680732)"><g><path d="M 52.53125 0 L 44.875 0 L 14.125 -46.640625 L 14.125 0 L 6.46875 0 L 6.46875 -58.671875 L 14.125 -58.671875 L 44.875 -12.109375 L 44.875 -58.671875 L 52.53125 -58.671875 Z M 52.53125 0 "/></g></g></g><g fill="#101928" fill-opacity="1"><g transform="translate(173.377751, 123.680732)"><g><path d="M 48.5 -24.796875 C 48.5 -23.335938 48.414062 -21.796875 48.25 -20.171875 L 11.4375 -20.171875 C 11.707031 -15.628906 13.257812 -12.082031 16.09375 -9.53125 C 18.925781 -6.988281 22.359375 -5.71875 26.390625 -5.71875 C 29.691406 -5.71875 32.445312 -6.488281 34.65625 -8.03125 C 36.875 -9.570312 38.429688 -11.628906 39.328125 -14.203125 L 47.578125 -14.203125 C 46.335938 -9.773438 43.867188 -6.175781 40.171875 -3.40625 C 36.472656 -0.632812 31.878906 0.75 26.390625 0.75 C 22.015625 0.75 18.101562 -0.226562 14.65625 -2.1875 C 11.21875 -4.144531 8.515625 -6.929688 6.546875 -10.546875 C 4.585938 -14.160156 3.609375 -18.347656 3.609375 -23.109375 C 3.609375 -27.867188 4.5625 -32.039062 6.46875 -35.625 C 8.375 -39.21875 11.050781 -41.976562 14.5 -43.90625 C 17.945312 -45.84375 21.910156 -46.8125 26.390625 -46.8125 C 30.765625 -46.8125 34.628906 -45.859375 37.984375 -43.953125 C 41.347656 -42.046875 43.941406 -39.425781 45.765625 -36.09375 C 47.585938 -32.757812 48.5 -28.992188 48.5 -24.796875 Z M 40.59375 -26.390625 C 40.59375 -29.304688 39.945312 -31.8125 38.65625 -33.90625 C 37.375 -36.007812 35.625 -37.609375 33.40625 -38.703125 C 31.195312 -39.796875 28.742188 -40.34375 26.046875 -40.34375 C 22.179688 -40.34375 18.890625 -39.109375 16.171875 -36.640625 C 13.460938 -34.179688 11.910156 -30.765625 11.515625 -26.390625 Z M 40.59375 -26.390625 "/></g></g></g><g fill="#101928" fill-opacity="1"><g transform="translate(225.488038, 123.680732)"><g><path d="M 10.421875 -53.53125 C 8.960938 -53.53125 7.726562 -54.035156 6.71875 -55.046875 C 5.707031 -56.054688 5.203125 -57.289062 5.203125 -58.75 C 5.203125 -60.207031 5.707031 -61.4375 6.71875 -62.4375 C 7.726562 -63.445312 8.960938 -63.953125 10.421875 -63.953125 C 11.816406 -63.953125 13.003906 -63.445312 13.984375 -62.4375 C 14.972656 -61.4375 15.46875 -60.207031 15.46875 -58.75 C 15.46875 -57.289062 14.972656 -56.054688 13.984375 -55.046875 C 13.003906 -54.035156 11.816406 -53.53125 10.421875 -53.53125 Z M 14.125 -46.0625 L 14.125 0 L 6.46875 0 L 6.46875 -46.0625 Z M 14.125 -46.0625 "/></g></g></g><g fill="#101928" fill-opacity="1"><g transform="translate(246.164054, 123.680732)"><g><path d="M 25.46875 -46.8125 C 29.445312 -46.8125 32.929688 -45.941406 35.921875 -44.203125 C 38.921875 -42.472656 41.148438 -40.289062 42.609375 -37.65625 L 42.609375 -46.0625 L 50.34375 -46.0625 L 50.34375 1.015625 C 50.34375 5.210938 49.445312 8.945312 47.65625 12.21875 C 45.863281 15.5 43.300781 18.0625 39.96875 19.90625 C 36.632812 21.757812 32.753906 22.6875 28.328125 22.6875 C 22.273438 22.6875 17.226562 21.257812 13.1875 18.40625 C 9.15625 15.550781 6.773438 11.65625 6.046875 6.71875 L 13.609375 6.71875 C 14.453125 9.519531 16.191406 11.773438 18.828125 13.484375 C 21.460938 15.191406 24.628906 16.046875 28.328125 16.046875 C 32.523438 16.046875 35.953125 14.726562 38.609375 12.09375 C 41.273438 9.46875 42.609375 5.773438 42.609375 1.015625 L 42.609375 -8.65625 C 41.097656 -5.96875 38.859375 -3.726562 35.890625 -1.9375 C 32.921875 -0.144531 29.445312 0.75 25.46875 0.75 C 21.375 0.75 17.660156 -0.253906 14.328125 -2.265625 C 10.992188 -4.285156 8.375 -7.113281 6.46875 -10.75 C 4.5625 -14.394531 3.609375 -18.546875 3.609375 -23.203125 C 3.609375 -27.898438 4.5625 -32.03125 6.46875 -35.59375 C 8.375 -39.15625 10.992188 -41.914062 14.328125 -43.875 C 17.660156 -45.832031 21.375 -46.8125 25.46875 -46.8125 Z M 42.609375 -23.109375 C 42.609375 -26.585938 41.90625 -29.613281 40.5 -32.1875 C 39.101562 -34.769531 37.210938 -36.742188 34.828125 -38.109375 C 32.453125 -39.484375 29.835938 -40.171875 26.984375 -40.171875 C 24.117188 -40.171875 21.507812 -39.5 19.15625 -38.15625 C 16.800781 -36.8125 14.925781 -34.847656 13.53125 -32.265625 C 12.132812 -29.691406 11.4375 -26.671875 11.4375 -23.203125 C 11.4375 -19.671875 12.132812 -16.597656 13.53125 -13.984375 C 14.925781 -11.378906 16.800781 -9.390625 19.15625 -8.015625 C 21.507812 -6.648438 24.117188 -5.96875 26.984375 -5.96875 C 29.835938 -5.96875 32.453125 -6.648438 34.828125 -8.015625 C 37.210938 -9.390625 39.101562 -11.378906 40.5 -13.984375 C 41.90625 -16.597656 42.609375 -19.640625 42.609375 -23.109375 Z M 42.609375 -23.109375 "/></g></g></g><g fill="#101928" fill-opacity="1"><g transform="translate(302.981084, 123.680732)"><g><path d="M 29.328125 -46.890625 C 32.804688 -46.890625 35.945312 -46.144531 38.75 -44.65625 C 41.550781 -43.175781 43.75 -40.953125 45.34375 -37.984375 C 46.9375 -35.015625 47.734375 -31.398438 47.734375 -27.140625 L 47.734375 0 L 40.171875 0 L 40.171875 -26.046875 C 40.171875 -30.648438 39.019531 -34.171875 36.71875 -36.609375 C 34.425781 -39.046875 31.289062 -40.265625 27.3125 -40.265625 C 23.28125 -40.265625 20.070312 -39 17.6875 -36.46875 C 15.3125 -33.945312 14.125 -30.28125 14.125 -25.46875 L 14.125 0 L 6.46875 0 L 6.46875 -62.1875 L 14.125 -62.1875 L 14.125 -39.5 C 15.632812 -41.851562 17.71875 -43.671875 20.375 -44.953125 C 23.039062 -46.242188 26.023438 -46.890625 29.328125 -46.890625 Z M 29.328125 -46.890625 "/></g></g></g><g fill="#101928" fill-opacity="1"><g transform="translate(356.772353, 123.680732)"><g><path d="M 14.125 -37.484375 C 15.6875 -40.234375 17.976562 -42.472656 21 -44.203125 C 24.03125 -45.941406 27.476562 -46.8125 31.34375 -46.8125 C 35.488281 -46.8125 39.210938 -45.832031 42.515625 -43.875 C 45.828125 -41.914062 48.4375 -39.15625 50.34375 -35.59375 C 52.25 -32.03125 53.203125 -27.898438 53.203125 -23.203125 C 53.203125 -18.546875 52.25 -14.394531 50.34375 -10.75 C 48.4375 -7.113281 45.816406 -4.285156 42.484375 -2.265625 C 39.148438 -0.253906 35.4375 0.75 31.34375 0.75 C 27.363281 0.75 23.875 -0.113281 20.875 -1.84375 C 17.882812 -3.582031 15.632812 -5.796875 14.125 -8.484375 L 14.125 0 L 6.46875 0 L 6.46875 -62.1875 L 14.125 -62.1875 Z M 45.390625 -23.203125 C 45.390625 -26.671875 44.6875 -29.691406 43.28125 -32.265625 C 41.882812 -34.847656 39.992188 -36.8125 37.609375 -38.15625 C 35.222656 -39.5 32.601562 -40.171875 29.75 -40.171875 C 26.945312 -40.171875 24.351562 -39.484375 21.96875 -38.109375 C 19.59375 -36.742188 17.691406 -34.753906 16.265625 -32.140625 C 14.835938 -29.535156 14.125 -26.523438 14.125 -23.109375 C 14.125 -19.640625 14.835938 -16.597656 16.265625 -13.984375 C 17.691406 -11.378906 19.59375 -9.390625 21.96875 -8.015625 C 24.351562 -6.648438 26.945312 -5.96875 29.75 -5.96875 C 32.601562 -5.96875 35.222656 -6.648438 37.609375 -8.015625 C 39.992188 -9.390625 41.882812 -11.378906 43.28125 -13.984375 C 44.6875 -16.597656 45.390625 -19.671875 45.390625 -23.203125 Z M 45.390625 -23.203125 "/></g></g></g><g fill="#101928" fill-opacity="1"><g transform="translate(413.589372, 123.680732)"><g><path d="M 26.5625 0.75 C 22.25 0.75 18.335938 -0.226562 14.828125 -2.1875 C 11.328125 -4.144531 8.582031 -6.929688 6.59375 -10.546875 C 4.601562 -14.160156 3.609375 -18.347656 3.609375 -23.109375 C 3.609375 -27.816406 4.628906 -31.976562 6.671875 -35.59375 C 8.722656 -39.207031 11.515625 -41.976562 15.046875 -43.90625 C 18.578125 -45.84375 22.523438 -46.8125 26.890625 -46.8125 C 31.265625 -46.8125 35.21875 -45.84375 38.75 -43.90625 C 42.28125 -41.976562 45.066406 -39.21875 47.109375 -35.625 C 49.148438 -32.039062 50.171875 -27.867188 50.171875 -23.109375 C 50.171875 -18.347656 49.117188 -14.160156 47.015625 -10.546875 C 44.921875 -6.929688 42.078125 -4.144531 38.484375 -2.1875 C 34.898438 -0.226562 30.925781 0.75 26.5625 0.75 Z M 26.5625 -5.96875 C 29.300781 -5.96875 31.875 -6.609375 34.28125 -7.890625 C 36.695312 -9.179688 38.644531 -11.113281 40.125 -13.6875 C 41.613281 -16.269531 42.359375 -19.410156 42.359375 -23.109375 C 42.359375 -26.804688 41.628906 -29.941406 40.171875 -32.515625 C 38.710938 -35.097656 36.804688 -37.019531 34.453125 -38.28125 C 32.097656 -39.539062 29.550781 -40.171875 26.8125 -40.171875 C 24.007812 -40.171875 21.441406 -39.539062 19.109375 -38.28125 C 16.785156 -37.019531 14.925781 -35.097656 13.53125 -32.515625 C 12.132812 -29.941406 11.4375 -26.804688 11.4375 -23.109375 C 11.4375 -19.359375 12.117188 -16.191406 13.484375 -13.609375 C 14.859375 -11.035156 16.691406 -9.117188 18.984375 -7.859375 C 21.285156 -6.597656 23.8125 -5.96875 26.5625 -5.96875 Z M 26.5625 -5.96875 "/></g></g></g><g fill="#101928" fill-opacity="1"><g transform="translate(467.380641, 123.680732)"><g><path d="M 14.125 -38.578125 C 15.46875 -41.210938 17.382812 -43.253906 19.875 -44.703125 C 22.363281 -46.160156 25.40625 -46.890625 29 -46.890625 L 29 -39 L 26.984375 -39 C 18.410156 -39 14.125 -34.347656 14.125 -25.046875 L 14.125 0 L 6.46875 0 L 6.46875 -46.0625 L 14.125 -46.0625 Z M 14.125 -38.578125 "/></g></g></g></svg>